<?xml version="1.0" encoding="UTF-8"?>
<svg version="1.1" xmlns="http://www.w3.org/2000/svg" width="512" height="512">
<path d="M0 0 C0.99456207 0.00215515 1.98912415 0.0043103 3.01382446 0.00653076 C17.49438666 0.05688983 31.6431425 0.40766644 45.875 3.3125 C46.88900879 3.51117676 47.90301758 3.70985352 48.94775391 3.91455078 C94.71084496 13.06716899 135.99906392 33.66336897 170.46484375 65.125 C172.80081254 67.24516617 175.17826875 69.3094731 177.5625 71.375 C181.02323183 74.44783895 184.09651239 77.67149519 187.078125 81.20703125 C189.02993411 83.49404236 191.07488033 85.67584681 193.125 87.875 C221.65529707 119.63969623 239.7749086 160.05382529 248.625 201.5 C248.92325684 202.88723267 248.92325684 202.88723267 249.22753906 204.30249023 C252.48514192 220.34045695 253.25119506 236.11453383 253.1875 252.4375 C253.18534485 253.43172974 253.1831897 254.42595947 253.18096924 255.45031738 C253.13063314 269.91859955 252.83351704 284.09939071 249.875 298.3125 C249.57698486 299.77695557 249.57698486 299.77695557 249.27294922 301.27099609 C240.34146821 343.96146824 222.44399954 383.20203288 193.875 416.3125 C193.22917969 417.06917969 192.58335937 417.82585937 191.91796875 418.60546875 C181.29048822 430.73664633 169.79109722 442.6296814 156.875 452.3125 C156.25641113 452.78574707 155.63782227 453.25899414 155.00048828 453.74658203 C143.22853915 462.72140215 130.94580308 470.37484534 117.875 477.3125 C117.05225586 477.75190918 116.22951172 478.19131836 115.38183594 478.64404297 C93.52667556 490.13736805 69.15606075 497.96163658 44.875 502.3125 C44.01535645 502.47331055 43.15571289 502.63412109 42.27001953 502.79980469 C14.65035925 507.75285894 -16.57713907 507.59342351 -44.125 502.3125 C-45.1444873 502.11914062 -46.16397461 501.92578125 -47.21435547 501.7265625 C-73.19218133 496.62004615 -103.65667382 488.3875603 -125.5300293 472.57373047 C-129.61333453 470.58912657 -132.85272634 471.57353002 -137.06390381 472.9430542 C-139.22785308 473.73579584 -141.35921073 474.58832024 -143.4921875 475.4609375 C-144.30423141 475.78549423 -145.11627533 476.11005096 -145.95292664 476.44444275 C-147.71474429 477.14940833 -149.47519342 477.85780169 -151.23440552 478.56924438 C-156.01071807 480.50052475 -160.79713179 482.40652433 -165.58203125 484.31640625 C-166.58860275 484.71899155 -167.59517426 485.12157684 -168.63224792 485.53636169 C-180.61575068 490.32236271 -192.65123669 494.97367132 -204.6875 499.625 C-207.80477524 500.83002069 -210.92199671 502.03517925 -214.03901672 503.24085999 C-215.898941 503.96013579 -217.75909852 504.67880895 -219.61955261 505.39671326 C-224.75882427 507.38303793 -229.87245872 509.41936298 -234.96440125 511.52445984 C-240.83191592 513.66453198 -247.03152908 513.28446864 -252.625 510.6875 C-257.03960017 506.49362984 -259.36135348 503.4408354 -259.6640625 497.26171875 C-259.51593558 488.05708411 -255.58858018 480.00064697 -252.125 471.625 C-251.39878807 469.8252565 -250.67478854 468.02461886 -249.95288086 466.22314453 C-248.44824338 462.47323753 -246.93414183 458.72736068 -245.41357422 454.98388672 C-241.74355798 445.92233675 -238.22420088 436.80167763 -234.6875 427.6875 C-233.36877528 424.29234916 -232.04857737 420.89777733 -230.7265625 417.50390625 C-230.41571213 416.70578522 -230.10486176 415.90766418 -229.78459167 415.08535767 C-227.9236922 410.32037178 -226.02254389 405.57456636 -224.0859375 400.83984375 C-223.65079834 399.76621582 -223.21565918 398.69258789 -222.76733398 397.58642578 C-221.99805248 395.69556769 -221.21742459 393.80925975 -220.42211914 391.92919922 C-218.54709073 387.2992822 -217.43182904 384.21771586 -219.125 379.3125 C-220.84918159 375.71804586 -222.76214025 372.23982377 -224.6875 368.75 C-230.49927306 357.89842434 -235.19346929 346.96997186 -239.125 335.3125 C-239.53806396 334.08998535 -239.53806396 334.08998535 -239.95947266 332.84277344 C-243.19056493 323.09301579 -245.72533918 313.22913217 -247.875 303.1875 C-248.07375732 302.27121826 -248.27251465 301.35493652 -248.47729492 300.41088867 C-251.70724143 284.56850638 -252.50581214 268.75397105 -252.4375 252.625 C-252.43534485 251.70396484 -252.4331897 250.78292969 -252.43096924 249.83398438 C-252.37839737 235.80185403 -251.90389323 222.10789685 -249.125 208.3125 C-248.92100586 207.28350586 -248.71701172 206.25451172 -248.50683594 205.19433594 C-240.28187789 164.78788265 -223.63701505 127.75477381 -198.125 95.3125 C-197.37605469 94.35730469 -196.62710938 93.40210937 -195.85546875 92.41796875 C-183.09718212 76.76646437 -168.52886366 62.11994612 -152.125 50.3125 C-150.97835128 49.46073199 -149.83253275 48.60784537 -148.6875 47.75390625 C-140.49274236 41.70523097 -131.96047739 36.36901825 -123.125 31.3125 C-122.00222656 30.65636719 -120.87945312 30.00023438 -119.72265625 29.32421875 C-98.38769261 17.34880047 -74.78159568 9.66372 -50.9375 4.5625 C-50.01251709 4.36358154 -49.08753418 4.16466309 -48.13452148 3.9597168 C-32.09647013 0.70292633 -16.32295369 -0.06368903 0 0 Z M-131.125 76.3125 C-132.00414062 76.97894531 -132.88328125 77.64539063 -133.7890625 78.33203125 C-140.57151993 83.61804172 -146.89115848 89.39956166 -153.125 95.3125 C-153.62821777 95.78703613 -154.13143555 96.26157227 -154.64990234 96.75048828 C-188.87571179 129.23693526 -209.12986864 173.27422488 -217.125 219.3125 C-217.25632324 220.02792969 -217.38764648 220.74335938 -217.52294922 221.48046875 C-226.81499431 273.71401255 -211.83326044 329.06764677 -184.125 373.3125 C-181.71702614 378.12844771 -182.54920147 384.95286331 -183.79092407 390.04147339 C-184.73293622 392.73033256 -185.7803875 395.34268506 -186.89453125 397.96484375 C-187.28704071 398.93606674 -187.67955017 399.90728973 -188.08395386 400.90794373 C-189.34994315 404.02989231 -190.64361959 407.13952215 -191.9375 410.25 C-192.81266438 412.3976394 -193.68545643 414.54624701 -194.5559082 416.69580078 C-196.27675812 420.94346144 -198.0052841 425.18785733 -199.73925781 429.43017578 C-202.63106957 436.53056801 -205.40732489 443.67224356 -208.11605835 450.8442688 C-208.79892243 452.65156504 -209.48790157 454.45654699 -210.17700195 456.26147461 C-210.5762085 457.31729736 -210.97541504 458.37312012 -211.38671875 459.4609375 C-211.72662842 460.35989746 -212.06653809 461.25885742 -212.41674805 462.18505859 C-213.23028948 464.25506146 -213.23028948 464.25506146 -213.125 466.3125 C-208.42509612 465.59290856 -204.2542726 463.91871047 -199.86328125 462.171875 C-199.05192215 461.85297302 -198.24056305 461.53407104 -197.40461731 461.20550537 C-195.65737468 460.51846976 -193.91080906 459.82971038 -192.16485596 459.1394043 C-189.41598795 458.05400591 -186.66430272 456.97607755 -183.91162109 455.90039062 C-175.80113895 452.72958236 -167.69575762 449.54760869 -159.6124115 446.3081665 C-156.54945942 445.08409596 -153.48089116 443.87458723 -150.41098022 442.66809082 C-148.9868721 442.1042477 -147.56540696 441.53367598 -146.1468811 440.95593262 C-128.42129233 433.74195328 -128.42129233 433.74195328 -119.44238281 437.40771484 C-116.60141967 438.90368341 -113.90322671 440.53766011 -111.1875 442.25 C-109.16265616 443.4556272 -107.13393604 444.65476593 -105.1015625 445.84765625 C-104.09641602 446.43949707 -103.09126953 447.03133789 -102.05566406 447.64111328 C-81.14478863 459.56679249 -57.64696934 465.96722017 -34.125 470.3125 C-33.42761719 470.44527344 -32.73023438 470.57804687 -32.01171875 470.71484375 C21.89041826 480.48529221 81.71826811 464.52645305 126.20654297 433.69677734 C135.48429178 427.0308402 144.15300949 419.7361937 152.35302734 411.78759766 C153.87772235 410.30986149 155.41710293 408.84855244 156.95703125 407.38671875 C163.83638702 400.77106612 169.86175022 393.70523062 175.56787109 386.05957031 C176.81758103 384.38924451 178.08898041 382.73752836 179.36328125 381.0859375 C191.18735766 365.46563592 199.97400083 347.5889026 206.875 329.3125 C207.28806396 328.22388672 207.28806396 328.22388672 207.70947266 327.11328125 C211.05318313 318.13222408 213.55225323 309.04151338 215.625 299.6875 C215.82375732 298.79450195 216.02251465 297.90150391 216.22729492 296.98144531 C219.29974554 282.37380612 220.25520456 268.0653065 220.1875 253.1875 C220.18534485 252.33155243 220.1831897 251.47560486 220.18096924 250.59371948 C220.12741118 237.30776123 219.63949652 224.35146218 216.875 211.3125 C216.56900879 209.86713867 216.56900879 209.86713867 216.25683594 208.39257812 C207.25324733 167.2670162 188.01589612 130.67390768 158.875 100.3125 C158.07255859 99.46921143 158.07255859 99.46921143 157.25390625 98.60888672 C149.04088682 90.01888401 140.51928967 82.26501414 130.875 75.3125 C130.21580566 74.83603027 129.55661133 74.35956055 128.87744141 73.86865234 C102.63040718 55.13840337 73.40902148 42.81995069 41.875 36.3125 C41.02953613 36.13460937 40.18407227 35.95671875 39.31298828 35.7734375 C-19.17366315 24.09695807 -83.98721902 40.39517319 -131.125 76.3125 Z " fill="#000000" transform="translate(259.125,-0.3125)"/>
<path d="M0 0 C1.29541214 -0.00671722 2.59082428 -0.01343445 3.92549133 -0.02035522 C7.46098798 -0.03793394 10.99638764 -0.04270729 14.53192377 -0.0439868 C16.74790468 -0.04541415 18.9638614 -0.04969487 21.17983627 -0.05498123 C28.93126727 -0.07345819 36.68262974 -0.08165522 44.43408203 -0.08007812 C51.62544752 -0.07887898 58.8165118 -0.09994244 66.00780118 -0.13156545 C72.20856877 -0.15784734 78.40923876 -0.16844039 84.61006153 -0.16716731 C88.30156178 -0.16666094 91.99279435 -0.17216099 95.68423843 -0.19352341 C99.81183174 -0.21675941 103.9387648 -0.20731271 108.06640625 -0.1953125 C109.86557747 -0.21217102 109.86557747 -0.21217102 111.70109558 -0.22937012 C128.6680161 -0.10490724 143.25458848 6.05235972 155.53857422 17.72412109 C164.82691416 27.72812002 170.06363094 38.70148749 172.98217773 52.00830078 C173.24745018 53.21410797 173.24745018 53.21410797 173.51808167 54.4442749 C173.71771767 55.35816986 173.71771767 55.35816986 173.92138672 56.29052734 C174.591241 55.9544899 175.26109528 55.61845245 175.95124817 55.27223206 C182.26253959 52.10657001 188.57479028 48.94283088 194.88812733 45.78125095 C198.13387806 44.15576572 201.37925229 42.52953798 204.6237793 40.90161133 C207.75461913 39.33076088 210.8864305 37.76186361 214.01892662 36.19431877 C215.79607835 35.30436874 217.57221674 34.41239609 219.3483429 33.520401 C220.42923691 32.97991623 221.51013092 32.43943146 222.6237793 31.88256836 C223.57642166 31.40513687 224.52906403 30.92770538 225.51057434 30.43580627 C230.64804614 27.99520232 235.62202613 27.24642589 241.08154297 28.97412109 C245.87408419 31.13300415 248.47958966 33.50460511 250.92138672 38.29052734 C251.89151533 42.07829691 252.04911464 45.63786529 252.05509949 49.53927612 C252.05936447 50.79815643 252.06362946 52.05703674 252.06802368 53.35406494 C252.0676742 54.74157718 252.06721269 56.12908939 252.06665039 57.51660156 C252.06964391 58.98379603 252.07304688 60.45098972 252.076828 61.91818237 C252.08565239 65.89757245 252.08800545 69.87694102 252.08864379 73.85633993 C252.08935515 76.34411053 252.09149111 78.83187568 252.09414101 81.31964493 C252.1033891 90.00313921 252.10747654 98.68661815 252.10668945 107.37011719 C252.10608873 115.45725617 252.1166409 123.54432843 252.13243312 131.63145053 C252.14551923 138.58107563 252.1508729 145.53067896 252.15023404 152.48031628 C252.14997938 156.62818633 252.1528131 160.77599708 252.16341209 164.92385483 C252.17311116 168.82594842 252.17315989 172.72792622 252.16589546 176.63002396 C252.16485188 178.05904052 252.16719902 179.48806437 252.17325592 180.91706848 C252.23880417 197.45812824 252.23880417 197.45812824 247.67138672 203.04052734 C243.00548943 206.85807967 239.32625276 208.71789673 233.19506836 208.60131836 C228.75952989 207.99502173 224.99467925 205.86992401 221.04638672 203.85302734 C220.08982178 203.38018311 219.13325684 202.90733887 218.14770508 202.42016602 C215.37753676 201.04643058 212.61542409 199.65765945 209.85528564 198.26391602 C206.19487288 196.42152174 202.52394407 194.60019036 198.85498047 192.77490234 C190.53456934 188.63173794 182.22540205 184.46644151 173.92138672 180.29052734 C173.66454102 181.37156738 173.40769531 182.45260742 173.14306641 183.56640625 C172.79342769 185.00837263 172.44347612 186.45026317 172.09326172 187.89208984 C171.92552246 188.60179932 171.7577832 189.31150879 171.58496094 190.04272461 C167.47580314 206.83625448 156.79255017 219.90350593 142.29638672 228.97802734 C131.39669485 234.99489022 120.53378122 236.89278305 108.20581055 236.79223633 C106.91445694 236.79763931 105.62310333 236.8030423 104.2926178 236.80860901 C100.7967754 236.82239875 97.30143423 236.81151409 93.80562043 236.79489779 C90.12193191 236.78089414 86.43826802 236.78752425 82.75456238 236.79103088 C76.5757961 236.79372004 70.39722554 236.7803663 64.21850586 236.75708008 C57.1019644 236.73044303 49.98574906 236.72873931 42.86917478 236.74046844 C35.98350327 236.75128986 29.0979483 236.74502735 22.212286 236.73091316 C19.29908133 236.72519461 16.38596312 236.72520305 13.47275734 236.72997856 C9.39792095 236.73568753 5.32356168 236.71632514 1.2487793 236.69458008 C-0.53840515 236.70133255 -0.53840515 236.70133255 -2.36169434 236.70822144 C-19.44232629 236.55749127 -34.4197346 230.1322744 -46.45361328 218.11474609 C-64.48750897 198.71220653 -64.54547618 176.08237625 -64.47705078 151.04052734 C-64.47907631 148.41129475 -64.48199171 145.78206272 -64.48574829 143.15283203 C-64.491171 137.66613149 -64.48410686 132.179553 -64.46972656 126.69287109 C-64.45340673 120.39435923 -64.45869774 114.09613895 -64.47520578 107.79763412 C-64.49058171 101.68084682 -64.4888001 95.56418639 -64.48006058 89.4473877 C-64.47807536 86.87048297 -64.48045802 84.29357067 -64.48749924 81.7166748 C-64.56161133 46.98003348 -64.56161133 46.98003348 -57.57861328 34.04052734 C-57.06693604 33.06031616 -57.06693604 33.06031616 -56.54492188 32.06030273 C-48.19054183 16.8565187 -34.18123429 6.37370845 -17.71878052 1.24349976 C-11.87104535 -0.18135628 -5.98658682 -0.00447846 0 0 Z M-23.39111328 42.60302734 C-30.78493659 51.44661993 -31.2286944 60.32650727 -31.22387695 71.47729492 C-31.22723557 72.59512863 -31.23059418 73.71296234 -31.23405457 74.8646698 C-31.24354233 78.55481075 -31.24550661 82.24490621 -31.24658203 85.93505859 C-31.24979616 88.50567137 -31.25316036 91.07628397 -31.25666809 93.64689636 C-31.26265395 99.03437807 -31.26455144 104.4218418 -31.26391602 109.80932617 C-31.26331578 116.01909165 -31.27386041 122.22877011 -31.28965968 128.43851358 C-31.30435893 134.43140138 -31.30790278 140.42424227 -31.30730629 146.4171505 C-31.30848419 148.95797773 -31.31289531 151.49880565 -31.32063866 154.03962135 C-31.33046857 157.59834578 -31.32754848 161.15684794 -31.3215332 164.71557617 C-31.32715271 165.75847809 -31.33277222 166.80138 -31.33856201 167.87588501 C-31.28981687 179.26170889 -29.30802548 187.59427395 -21.41064453 196.08349609 C-12.53396717 204.31016504 -1.65752105 204.44096775 9.83862305 204.43579102 C11.45466179 204.44082893 11.45466179 204.44082893 13.10334778 204.44596863 C16.65338301 204.45544213 20.20337089 204.45741993 23.75341797 204.45849609 C26.23052489 204.46171116 28.70763163 204.46507542 31.18473816 204.46858215 C36.37373291 204.4745644 41.56271103 204.47642298 46.75170898 204.47583008 C53.38578286 204.4757285 60.0197496 204.48937994 66.6537981 204.50660229 C71.76947007 204.51774562 76.88511632 204.51974857 82.00079918 204.51922035 C84.44590308 204.52039697 86.89100773 204.52480084 89.33609962 204.53255272 C92.76279738 204.54239968 96.18926497 204.53945592 99.6159668 204.53344727 C100.61629944 204.53906677 101.61663208 204.54468628 102.64727783 204.55047607 C113.36885809 204.50293824 123.42462012 203.0927621 131.67529297 195.72412109 C139.04727784 187.76089934 140.5171353 179.45387652 140.47070312 168.89282227 C140.48603592 167.07633934 140.48603592 167.07633934 140.50167847 165.22315979 C140.52459944 161.92528141 140.52963646 158.62803151 140.52455187 155.33009505 C140.52239939 152.56456741 140.53221251 149.79913057 140.54176271 147.03362256 C140.56389112 140.50159282 140.56486377 133.96979315 140.55273438 127.43774414 C140.54066603 120.72837961 140.56526056 114.01985511 140.60787451 107.31063384 C140.6432577 101.5242716 140.65508551 95.73817488 140.64859903 89.95170861 C140.64499595 86.50720198 140.650014 83.06329431 140.67802811 79.61888695 C140.70285726 75.77074924 140.68911649 71.92452585 140.66601562 68.07641602 C140.6813031 66.95550568 140.69659058 65.83459534 140.71234131 64.67971802 C140.59561652 55.8294565 138.06895443 48.06332456 132.17820168 41.28456402 C123.10867432 32.65009174 111.8256533 32.13994043 100.00415039 32.14526367 C98.92679123 32.14190506 97.84943207 32.13854645 96.73942566 32.13508606 C93.18939043 32.12561256 89.63940254 32.12363476 86.08935547 32.12255859 C83.61224854 32.11934353 81.13514181 32.11597927 78.65803528 32.11247253 C73.46904053 32.10649029 68.28006241 32.10463171 63.09106445 32.10522461 C56.45699058 32.10532618 49.82302384 32.09167474 43.18897533 32.0744524 C38.07330337 32.06330907 32.95765712 32.06130612 27.84197426 32.06183434 C25.39687035 32.06065771 22.95176571 32.05625385 20.50667381 32.04850197 C17.07997605 32.038655 13.65350847 32.04159877 10.22680664 32.04760742 C9.226474 32.04198792 8.22614136 32.03636841 7.19549561 32.03057861 C-4.60974807 32.08292125 -15.07765227 33.69899259 -23.39111328 42.60302734 Z M213.78466797 73.29418945 C212.90705811 73.7314183 212.02944824 74.16864716 211.12524414 74.61912537 C210.17109619 75.09721146 209.21694824 75.57529755 208.23388672 76.06787109 C207.26104736 76.55381241 206.28820801 77.03975372 205.28588867 77.54042053 C203.22411682 78.57096542 201.16285227 79.60252578 199.10205078 80.63500977 C195.93654306 82.22043638 192.76893126 83.80159804 189.60107422 85.38232422 C187.60355008 86.3814167 185.60615005 87.38075734 183.60888672 88.38037109 C182.65473877 88.85643295 181.70059082 89.33249481 180.7175293 89.82298279 C179.83991943 90.2633638 178.96230957 90.70374481 178.05810547 91.1574707 C177.28168701 91.54607773 176.50526855 91.93468475 175.70532227 92.33506775 C173.95210361 93.16331669 173.95210361 93.16331669 172.92138672 94.29052734 C172.82826782 95.79471474 172.80392644 97.3032409 172.80786133 98.81030273 C172.80793686 99.7712233 172.80801239 100.73214386 172.80809021 101.72218323 C172.8132515 102.76696335 172.81841278 103.81174347 172.82373047 104.88818359 C172.82514542 105.9521788 172.82656036 107.01617401 172.82801819 108.1124115 C172.83363608 111.52597818 172.84619161 114.93948034 172.85888672 118.35302734 C172.86389941 120.66096911 172.86846272 122.9689119 172.87255859 125.27685547 C172.88361132 130.94810161 172.90036685 136.61930987 172.92138672 142.29052734 C183.90946829 148.10920045 194.91696421 153.87080906 206.04638672 159.41552734 C207.19236328 159.99044922 208.33833984 160.56537109 209.51904297 161.15771484 C210.60314453 161.69912109 211.68724609 162.24052734 212.80419922 162.79833984 C213.76729004 163.27932129 214.73038086 163.76030273 215.72265625 164.25585938 C217.66718876 165.3614919 217.66718876 165.3614919 218.92138672 165.29052734 C218.92138672 134.27052734 218.92138672 103.25052734 218.92138672 71.29052734 C217.06263473 71.29052734 215.41390164 72.48040735 213.78466797 73.29418945 Z " fill="#000000" transform="translate(162.07861328125,137.70947265625)"/>
</svg>
